. 
 
http://www.torrenting.com          :     Once & For all ;)


               www . Torrenting . Com 

(((((((((((((= Enjoy No RAR releases =))))))))))))))))))))


...................................NFO:....................................

.[IMG]http://img850.imageshack.us/img850/8818/mardio.jpg[/IMG]



[color=blue][size=4][b]Mardi.Gras.Spring.Break.2011.R5.DVDRip.XVID.AC3.HQ.Hive-CM8[/b][/size][/color]


[b]Thx Hive

CM8 Doing It Right The First Time :D


Source: Russian DVD-5
Malchishnik.v.Novom.Orleane.2011.P.DVD


Encode:
Dvd had good quality, added sharpness,brightnes and rgb
got very nice
enjoy

Video: 720x384 @bitrate 1700 2pass
Audio: English AC3 5.1 @448
Sample: yes included[/b]


[url]http://www.imdb.com/title/tt1083462/[/url]


General
Complete name                  : Mardi.Gras.Spring.Break.2011.R5.DVDRip.XVID.AC3.HQ.Hive-CM8.avi
Format                         : AVI
Format/Info                    : Audio Video Interleave
File size                      : 1.28 GiB
Duration                       : 1h 24mn
Overall bit rate               : 2 154 Kbps
Writing application            : Nandub v1.0rc2
Writing library                : Nandub build 1853/release

Video
ID                             : 0
Format                         : MPEG-4 Visual
Format profile                 : Advanced Simple@L5
Format settings, BVOP          : 2
Format settings, QPel          : Yes
Format settings, GMC           : No warppoints
Format settings, Matrix        : Default (H.263)
Muxing mode                    : Packed bitstream
Codec ID                       : XVID
Codec ID/Hint                  : XviD
Duration                       : 1h 24mn
Bit rate                       : 1 696 Kbps
Width                          : 720 pixels
Height                         : 384 pixels
Display aspect ratio           : 1.875
Frame rate                     : 25.000 fps
Color space                    : YUV
Chroma subsampling             : 4:2:0
Bit depth                      : 8 bits
Scan type                      : Progressive
Compression mode               : Lossy
Bits/(Pixel*Frame)             : 0.245
Stream size                    : 1.01 GiB (79%)
Writing library                : XviD 1.2.1 (UTC 2008-12-04)

Audio
ID                             : 1
Format                         : AC-3
Format/Info                    : Audio Coding 3
Mode extension                 : CM (complete main)
Codec ID                       : 2000
Duration                       : 1h 24mn
Bit rate mode                  : Constant
Bit rate                       : 448 Kbps
Channel(s)                     : 6 channels
Channel positions              : Front: L C R, Side: L R, LFE
Sampling rate                  : 48.0 KHz
Bit depth                      : 16 bits
Compression mode               : Lossy
Stream size                    : 272 MiB (21%)
Alignment                      : Split accross interleaves
Interleave, duration           : 40 ms (1.00 video frame)
Interleave, preload duration   : 500 ms



Plot:

A group of college buddies sow their wild oats in New Orleans. 


Cast:

Danneel Ackles	... 	Erica (as Danneel Harris)
Arielle Kebbel	... 	Lucy
Carmen Electra	... 	Herself
Nicholas D'Agosto	... 	Mike
Marcelle Baer	... 	Oyster Girl #1



[img]http://img694.imageshack.us/img694/9770/94073138.png[/img]
[img]http://img585.imageshack.us/img585/8649/mamaoc.png[/img]
[img]http://img190.imageshack.us/img190/9119/mammaa.png[/img]
[img]http://img832.imageshack.us/img832/4562/mammmaaa.png[/img]
[img]http://img803.imageshack.us/img803/2010/mammmaamaa.png[/img]
[img]http://img444.imageshack.us/img444/745/mammmaamamaa.png[/img]
[img]http://img338.imageshack.us/img338/4593/mammmaamamamaa.png[/img]





Greetz

ViSiON,SiC,SANTi,3LT0N,YanKeeS,MAGNET,THC,T0XiC,LKRG,FANTASIA-PLAY,FANTASIA-M,FLAWL3SS,
D2U,WBZ,BHRG,NOVA,Vik,Rapeseed,SAFC,goldadvance,MEMORY100,KaN1vE,Unevano,Pinnz,Wayne
Mr Hive,cedrict wink,and all P2P groups
Great Work Guys :D

LOOKING FOR ANYTHING YOU WANT TO LOOK AND SOUND BETTER

CM8@hushmail.com